<svg xmlns="http://www.w3.org/2000/svg" viewBox="0 0 251.7 71.37"><defs><style>.cls-1{fill:#231815;}.cls-2{fill:#fff;}.cls-3{fill:#d373aa;}.cls-4{fill:#6d97cf;stroke:#6d97cf;stroke-miterlimit:10;stroke-width:0.25px;}</style></defs><g id="图层_2" data-name="图层 2"><g id="图层_1-2" data-name="图层 1"><rect class="cls-1" width="251.7" height="71.37" rx="12.76"/></g><g id="图层_2-2" data-name="图层 2"><path class="cls-2" d="M97.81,47.66v1.8a4.17,4.17,0,0,0,2.11,3.63,4,4,0,0,0,2.08.56h12.17v3.54H100.26a7.41,7.41,0,0,1-3.86-1,7.8,7.8,0,0,1-2.8-2.82,7.46,7.46,0,0,1-1-3.86v-7.1a7.46,7.46,0,0,1,1-3.86,7.6,7.6,0,0,1,2.8-2.8,7.5,7.5,0,0,1,3.86-1h13.91v3.51H102a4.07,4.07,0,0,0-2.08.55,4.19,4.19,0,0,0-1.54,1.53,4,4,0,0,0-.57,2.11v1.8"/><path class="cls-3" d="M76.09,45.79h5.28a3.71,3.71,0,0,0,2.7-1.11,3.79,3.79,0,0,0,0-5.4,3.71,3.71,0,0,0-2.7-1.11H73.52v19H68.25V34.66H83.11a7.13,7.13,0,0,1,3.68,1,7.37,7.37,0,0,1,2.67,2.65,7.13,7.13,0,0,1,1,3.67,7.21,7.21,0,0,1-3.76,6.41l3.76,8.81H85.2L81.8,49.3H76.09Z"/><polyline class="cls-2" points="100.36 44.16 114.17 44.16 114.17 47.66 100.36 47.66"/><path class="cls-2" d="M138.41,47.86a6.48,6.48,0,0,1-.24,6.07,6.67,6.67,0,0,1-2.38,2.37,6.25,6.25,0,0,1-3.25.89H116.86V34.66H132a6.23,6.23,0,0,1,3.25.89,6.67,6.67,0,0,1,2.38,2.37,6.28,6.28,0,0,1,.88,3.26A6.36,6.36,0,0,1,138,43.6a6.81,6.81,0,0,1-1.33,2.06A6.19,6.19,0,0,1,138.41,47.86Zm-13.75-3.67h5.55a2.84,2.84,0,0,0,2.11-.88,3,3,0,0,0,0-4.26,2.84,2.84,0,0,0-2.11-.88h-8.12V53.65h8.71a3,3,0,1,0,0-6h-6.14Z"/><path class="cls-2" d="M142.42,37.22a5.08,5.08,0,0,1,1.87-1.87,4.93,4.93,0,0,1,2.55-.69H158.2a5,5,0,0,1,2.59.69,5.13,5.13,0,0,1,1.86,1.87,4.93,4.93,0,0,1,.69,2.55V52.05a5.08,5.08,0,0,1-.69,2.57,5.16,5.16,0,0,1-1.86,1.88,5,5,0,0,1-2.59.69H146.84a4.86,4.86,0,0,1-2.55-.71,5.19,5.19,0,0,1-1.87-1.88,5,5,0,0,1-.69-2.55V39.77A4.93,4.93,0,0,1,142.42,37.22ZM157.3,52.88a2.53,2.53,0,0,0,.77-1.85V40.82a2.57,2.57,0,0,0-.77-1.88,2.49,2.49,0,0,0-1.85-.77h-5.83a2.53,2.53,0,0,0-1.88.77,2.57,2.57,0,0,0-.77,1.88V51a2.53,2.53,0,0,0,.77,1.85,2.57,2.57,0,0,0,1.88.77h5.83A2.53,2.53,0,0,0,157.3,52.88Z"/><path class="cls-4" d="M189,57.19H174.07a6.45,6.45,0,0,1-3.35-.9,6.74,6.74,0,0,1-2.42-2.44,6.51,6.51,0,0,1-.9-3.34v-9.2a6.39,6.39,0,0,1,.9-3.32,6.68,6.68,0,0,1,2.42-2.42,6.45,6.45,0,0,1,3.35-.91H189v3.51H175.84a3.09,3.09,0,0,0-2.23.9,3,3,0,0,0-.91,2.24v9.2a3.12,3.12,0,0,0,3.14,3.14H189Z"/><path class="cls-3" d="M210.24,57.19,203,40.1l-5.76,13.58h6.45l1.64,3.51h-14.8l9.56-22.53h5.79l9.56,22.53Z"/><path class="cls-4" d="M222.29,49.3v7.89h-5.24V34.66h14.86a7.19,7.19,0,0,1,3.69,1,7.27,7.27,0,0,1,2.66,2.65,7,7,0,0,1,1,3.67,7.33,7.33,0,0,1-7.34,7.33h-7V45.79h5.32a3.65,3.65,0,0,0,2.68-1.11,3.81,3.81,0,0,0,0-5.4,3.65,3.65,0,0,0-2.68-1.11h-7.89V49.3Z"/><path class="cls-2" d="M40.47,43.08c1,3.55,4.86,15.57,6.8,14.59C49,56.79,54,50.1,56.47,45a3.92,3.92,0,0,0-.22-3.88,59.28,59.28,0,0,0-4-4.7c4.53-.75,9.36-2.34,9.79-3,.74-1.22,2-21.36-.73-22.16-3.25-.94-22.43,11.2-22.12,17S39.49,39.52,40.47,43.08Z"/><path class="cls-2" d="M35.45,43.08c-1,3.55-4.85,15.57-6.79,14.59-1.74-.88-6.74-7.57-9.21-12.63a3.93,3.93,0,0,1,.23-3.88,59.28,59.28,0,0,1,4-4.7c-4.53-.75-9.37-2.34-9.8-3-.73-1.22-2-21.38.74-22.16,3.24-.94,22.43,11.2,22.12,17S36.43,39.52,35.45,43.08Z"/></g></g></svg>