<?xml version="1.0" encoding="UTF-8"?>
<svg id="_图层_2" data-name="图层 2" xmlns="http://www.w3.org/2000/svg" xmlns:xlink="http://www.w3.org/1999/xlink" viewBox="0 0 226.39 47.93">
  <defs>
    <style>
      .cls-1, .cls-2, .cls-3, .cls-4, .cls-5, .cls-6, .cls-7, .cls-8 {
        stroke-width: 0px;
      }

      .cls-1, .cls-3 {
        fill: #d373aa;
      }

      .cls-9 {
        filter: url(#drop-shadow-6);
      }

      .cls-2 {
        fill: url(#_未命名的渐变_185);
        filter: url(#drop-shadow-8);
      }

      .cls-3 {
        filter: url(#drop-shadow-2);
      }

      .cls-10 {
        fill: #6d97cf;
        stroke: #6d97cf;
        stroke-miterlimit: 10;
        stroke-width: .25px;
      }

      .cls-4 {
        filter: url(#drop-shadow-5);
      }

      .cls-4, .cls-5, .cls-6, .cls-7 {
        fill: #cacacb;
      }

      .cls-5 {
        filter: url(#drop-shadow-3);
      }

      .cls-6 {
        filter: url(#drop-shadow-4);
      }

      .cls-7 {
        filter: url(#drop-shadow-1);
      }

      .cls-8 {
        fill: url(#_未命名的渐变_183);
        filter: url(#drop-shadow-7);
      }
    </style>
    <filter id="drop-shadow-1" filterUnits="userSpaceOnUse">
      <feOffset dx="0" dy="1.42"/>
      <feGaussianBlur result="blur" stdDeviation="0"/>
      <feFlood flood-color="#a3a3a3" flood-opacity=".75"/>
      <feComposite in2="blur" operator="in"/>
      <feComposite in="SourceGraphic"/>
    </filter>
    <filter id="drop-shadow-2" filterUnits="userSpaceOnUse">
      <feOffset dx="0" dy="1.42"/>
      <feGaussianBlur result="blur-2" stdDeviation="0"/>
      <feFlood flood-color="#a3a3a3" flood-opacity=".75"/>
      <feComposite in2="blur-2" operator="in"/>
      <feComposite in="SourceGraphic"/>
    </filter>
    <filter id="drop-shadow-3" filterUnits="userSpaceOnUse">
      <feOffset dx="0" dy="1.42"/>
      <feGaussianBlur result="blur-3" stdDeviation="0"/>
      <feFlood flood-color="#a3a3a3" flood-opacity=".75"/>
      <feComposite in2="blur-3" operator="in"/>
      <feComposite in="SourceGraphic"/>
    </filter>
    <filter id="drop-shadow-4" filterUnits="userSpaceOnUse">
      <feOffset dx="0" dy="1.42"/>
      <feGaussianBlur result="blur-4" stdDeviation="0"/>
      <feFlood flood-color="#a3a3a3" flood-opacity=".75"/>
      <feComposite in2="blur-4" operator="in"/>
      <feComposite in="SourceGraphic"/>
    </filter>
    <filter id="drop-shadow-5" filterUnits="userSpaceOnUse">
      <feOffset dx="0" dy="1.42"/>
      <feGaussianBlur result="blur-5" stdDeviation="0"/>
      <feFlood flood-color="#a3a3a3" flood-opacity=".75"/>
      <feComposite in2="blur-5" operator="in"/>
      <feComposite in="SourceGraphic"/>
    </filter>
    <filter id="drop-shadow-6" filterUnits="userSpaceOnUse">
      <feOffset dx="0" dy="1.42"/>
      <feGaussianBlur result="blur-6" stdDeviation="0"/>
      <feFlood flood-color="#a3a3a3" flood-opacity=".75"/>
      <feComposite in2="blur-6" operator="in"/>
      <feComposite in="SourceGraphic"/>
    </filter>
    <linearGradient id="_未命名的渐变_183" data-name="未命名的渐变 183" x1="38.06" y1="46.85" x2="38.06" y2=".34" gradientUnits="userSpaceOnUse">
      <stop offset="0" stop-color="#f3b0cd"/>
      <stop offset="1" stop-color="#72b9e7"/>
    </linearGradient>
    <filter id="drop-shadow-7" filterUnits="userSpaceOnUse">
      <feOffset dx="0" dy="1.42"/>
      <feGaussianBlur result="blur-7" stdDeviation="0"/>
      <feFlood flood-color="#a3a3a3" flood-opacity=".75"/>
      <feComposite in2="blur-7" operator="in"/>
      <feComposite in="SourceGraphic"/>
    </filter>
    <linearGradient id="_未命名的渐变_185" data-name="未命名的渐变 185" x1="11.9" y1="46.85" x2="11.9" y2=".34" gradientUnits="userSpaceOnUse">
      <stop offset="0" stop-color="#ebacc8"/>
      <stop offset="1" stop-color="#70b1dc"/>
    </linearGradient>
    <filter id="drop-shadow-8" filterUnits="userSpaceOnUse">
      <feOffset dx="0" dy="1.42"/>
      <feGaussianBlur result="blur-8" stdDeviation="0"/>
      <feFlood flood-color="#a3a3a3" flood-opacity=".75"/>
      <feComposite in2="blur-8" operator="in"/>
      <feComposite in="SourceGraphic"/>
    </filter>
  </defs>
  <g id="_图层_2-2" data-name="图层 2">
    <g>
      <path class="cls-7" d="m84.83,36.45v1.8c0,.76.19,1.47.57,2.11.38.64.89,1.15,1.54,1.52.64.37,1.34.56,2.08.56h12.18v3.54h-13.91c-1.4,0-2.68-.35-3.86-1.05-1.18-.7-2.11-1.64-2.8-2.82-.69-1.18-1.03-2.47-1.03-3.86v-7.1c0-1.4.34-2.68,1.03-3.86.69-1.18,1.62-2.11,2.8-2.8,1.18-.69,2.46-1.03,3.86-1.03h13.91v3.5h-12.18c-.74,0-1.44.19-2.08.56-.64.37-1.16.88-1.54,1.52-.38.64-.57,1.35-.57,2.11v5.3"/>
      <path class="cls-3" d="m63.11,34.59h5.28c1.05,0,1.95-.37,2.7-1.11.75-.74,1.13-1.65,1.13-2.72s-.38-1.94-1.13-2.68c-.75-.74-1.65-1.11-2.7-1.11h-7.85v19.02h-5.27v-22.52h14.86c1.33,0,2.56.33,3.68.98,1.12.65,2.01,1.54,2.67,2.65.65,1.11.98,2.34.98,3.67s-.34,2.63-1.01,3.76c-.68,1.13-1.59,2.02-2.75,2.65l3.77,8.8h-5.24l-3.4-7.89h-5.71v-3.5Z"/>
      <rect class="cls-5" x="87.38" y="32.95" width="13.82" height="3.5"/>
      <path class="cls-6" d="m125.43,36.65c.43.87.64,1.81.64,2.82,0,1.18-.29,2.26-.88,3.26-.59.99-1.38,1.78-2.37,2.37-.99.59-2.08.88-3.26.88h-15.68v-22.52h15.09c1.18,0,2.26.29,3.26.88.99.59,1.78,1.38,2.37,2.37.59.99.88,2.08.88,3.26,0,.85-.16,1.66-.47,2.42-.32.76-.76,1.45-1.33,2.06.74.59,1.33,1.32,1.75,2.19Zm-13.75-3.67h5.55c.83,0,1.53-.3,2.11-.88.58-.59.87-1.3.87-2.13s-.29-1.54-.87-2.13c-.58-.59-1.28-.88-2.11-.88h-8.12v15.48h8.71c.83,0,1.53-.29,2.11-.87.58-.58.87-1.28.87-2.11s-.29-1.53-.87-2.11c-.58-.58-1.28-.87-2.11-.87h-6.14v-3.5Z"/>
      <path class="cls-4" d="m129.44,26.01c.46-.79,1.08-1.41,1.87-1.87.78-.46,1.64-.69,2.55-.69h11.36c.94,0,1.8.23,2.59.69.78.46,1.41,1.08,1.87,1.87.46.79.69,1.64.69,2.55v12.27c0,.92-.23,1.77-.69,2.57-.46.8-1.08,1.42-1.87,1.88-.79.46-1.65.69-2.59.69h-11.36c-.92,0-1.77-.23-2.55-.7-.79-.47-1.41-1.1-1.87-1.88-.46-.79-.69-1.64-.69-2.55v-12.27c0-.92.23-1.77.69-2.55Zm14.88,15.66c.51-.51.77-1.13.77-1.85v-10.21c0-.74-.26-1.37-.77-1.88-.51-.51-1.13-.77-1.85-.77h-5.83c-.74,0-1.37.26-1.88.77-.51.51-.77,1.14-.77,1.88v10.21c0,.72.26,1.34.77,1.85.51.51,1.14.77,1.88.77h5.83c.72,0,1.34-.26,1.85-.77Z"/>
      <g class="cls-9">
        <path class="cls-10" d="m176.02,45.98h-14.93c-1.22,0-2.34-.3-3.36-.9-1.01-.6-1.82-1.41-2.42-2.44-.6-1.03-.9-2.14-.9-3.34v-9.2c0-1.2.3-2.31.9-3.32s1.41-1.82,2.42-2.42,2.13-.9,3.36-.9h14.93v3.5h-13.16c-.87,0-1.61.3-2.23.9-.61.6-.92,1.35-.92,2.24v9.2c0,.87.31,1.61.92,2.23.61.61,1.35.92,2.23.92h13.16v3.54Z"/>
        <path class="cls-1" d="m197.26,45.98l-7.2-17.09-5.76,13.58h6.45l1.64,3.5h-14.8l9.56-22.52h5.79l9.56,22.52h-5.24Z"/>
        <path class="cls-10" d="m209.31,38.09v7.89h-5.24v-22.52h14.86c1.33,0,2.56.33,3.68.98,1.12.65,2.01,1.54,2.67,2.65.66,1.11.98,2.34.98,3.67s-.33,2.56-.98,3.68c-.65,1.12-1.54,2.01-2.67,2.67-1.12.65-2.35.98-3.68.98h-7.05v-3.5s5.32,0,5.32,0c1.05,0,1.94-.37,2.69-1.11.74-.74,1.11-1.65,1.11-2.72s-.37-1.94-1.11-2.68c-.74-.74-1.64-1.11-2.69-1.11h-7.89v11.13Z"/>
      </g>
      <path class="cls-8" d="m27.49,31.87c.98,3.55,4.86,15.57,6.8,14.59,1.73-.88,6.73-7.57,9.2-12.63.61-1.24.53-2.71-.22-3.88-.92-1.41-2.57-2.98-4.04-4.69,4.53-.76,9.37-2.35,9.8-3.04.73-1.22,2-21.37-.73-22.16-3.24-.94-22.43,11.2-22.12,17.04.29,5.84.35,11.22,1.33,14.78Z"/>
      <path class="cls-2" d="m22.47,31.87c-.98,3.55-4.86,15.57-6.8,14.59-1.73-.88-6.73-7.57-9.2-12.63-.61-1.24-.53-2.71.22-3.88.92-1.41,2.57-2.98,4.04-4.69-4.53-.76-9.37-2.35-9.8-3.04C.21,20.99-1.06.83,1.68.05c3.24-.94,22.43,11.2,22.12,17.04-.29,5.84-.35,11.22-1.33,14.78Z"/>
    </g>
  </g>
</svg>